# Blender 3.3.1
# www.blender.org
mtllib Non-collide_example1.mtl
o Circle
v 1.675205 1.050531 -1.270568
v 2.348511 0.729216 -0.827357
v 2.999469 1.158038 -0.446063
v 3.137895 2.014086 -0.413810
v 2.659552 2.652738 -0.754883
v 1.924640 2.593076 -1.212449
v 1.486565 1.880026 -1.441950
v 2.348511 0.729216 -0.827357
v 1.675205 1.050531 -1.270568
v 2.999469 1.158038 -0.446063
v 3.137895 2.014086 -0.413810
v 2.659552 2.652738 -0.754883
v 1.924640 2.593076 -1.212449
v 1.486565 1.880026 -1.441950
v 1.863475 0.778538 -0.054756
v 1.190169 1.099853 -0.497967
v 2.514434 1.207361 0.326537
v 2.652860 2.063409 0.358791
v 2.174516 2.702061 0.017718
v 1.439605 2.642398 -0.439848
v 1.001529 1.929349 -0.669349
vn 0.5309 -0.0540 -0.8457
vn -0.3407 -0.9274 -0.1547
vn -0.5309 0.0540 0.8457
vn -0.6806 0.5673 -0.4635
vn 0.6436 0.6749 0.3610
vn 0.3942 -0.8677 0.3029
vn -0.8191 -0.2887 -0.4958
vn -0.0297 0.9962 -0.0822
vn 0.8323 -0.1546 0.5324
vt 0.500000 1.000000
vt 0.109084 0.811745
vt 0.012536 0.388739
vt 0.283058 0.049516
vt 0.716942 0.049516
vt 0.987464 0.388739
vt 0.890916 0.811745
vt 0.109084 0.811745
vt 0.500000 1.000000
vt 0.012536 0.388739
vt 0.283058 0.049516
vt 0.716942 0.049516
vt 0.987464 0.388739
vt 0.890916 0.811745
vt 0.109084 0.811745
vt 0.500000 1.000000
vt 0.012536 0.388739
vt 0.283058 0.049516
vt 0.716942 0.049516
vt 0.987464 0.388739
vt 0.890916 0.811745
s 0
f 1/1/1 7/7/1 6/6/1 5/5/1 4/4/1 3/3/1 2/2/1
f 9/9/2 8/8/2 15/15/2 16/16/2
f 6/6/3 7/7/3 14/14/3 13/13/3
f 4/4/3 5/5/3 12/12/3 11/11/3
f 2/2/3 3/3/3 10/10/3 8/8/3
f 7/7/3 1/1/3 9/9/3 14/14/3
f 5/5/3 6/6/3 13/13/3 12/12/3
f 3/3/3 4/4/3 11/11/3 10/10/3
f 1/1/3 2/2/3 8/8/3 9/9/3
f 16/16/3 15/15/3 17/17/3 18/18/3 19/19/3 20/20/3 21/21/3
f 13/13/4 14/14/4 21/21/4 20/20/4
f 11/11/5 12/12/5 19/19/5 18/18/5
f 8/8/6 10/10/6 17/17/6 15/15/6
f 14/14/7 9/9/7 16/16/7 21/21/7
f 12/12/8 13/13/8 20/20/8 19/19/8
f 10/10/9 11/11/9 18/18/9 17/17/9
o Icosphere
v -0.220650 -0.962051 -3.640453
v 0.502958 -0.409270 -3.114727
v -0.497038 -0.409271 -2.789804
v -1.115076 -0.409266 -3.640453
v -0.497038 -0.409271 -4.491102
v 0.502958 -0.409270 -4.166178
v 0.055738 0.485169 -2.789804
v -0.944257 0.485169 -3.114727
v -0.944257 0.485169 -4.166178
v 0.055738 0.485169 -4.491102
v 0.673777 0.485165 -3.640453
v -0.220650 1.037949 -3.640453
v -0.383105 -0.812705 -3.140458
v 0.204673 -0.812705 -3.331441
v 0.042219 -0.487788 -2.831441
v 0.629998 -0.487787 -3.640453
v 0.204673 -0.812705 -3.949464
v -0.746379 -0.812702 -3.640453
v -0.908839 -0.487787 -3.140456
v -0.383105 -0.812705 -4.140448
v -0.908839 -0.487787 -4.140450
v 0.042219 -0.487788 -4.449464
v 0.730408 0.037949 -3.331440
v 0.730408 0.037949 -3.949465
v -0.220650 0.037949 -2.640453
v 0.367136 0.037949 -2.831436
v -1.171707 0.037949 -3.331440
v -0.808435 0.037949 -2.831436
v -0.808435 0.037949 -4.449470
v -1.171707 0.037949 -3.949465
v 0.367136 0.037949 -4.449470
v -0.220650 0.037949 -4.640452
v 0.467540 0.563685 -3.140456
v -0.483518 0.563687 -2.831441
v -1.071297 0.563685 -3.640453
v -0.483518 0.563687 -4.449464
v 0.467540 0.563685 -4.140450
v -0.058194 0.888604 -3.140458
v 0.305080 0.888601 -3.640453
v -0.645972 0.888603 -3.331441
v -0.645972 0.888603 -3.949464
v -0.058194 0.888604 -4.140448
vn 0.1024 -0.9435 0.3151
vn 0.7002 -0.6617 0.2680
vn -0.2680 -0.9435 0.1947
vn -0.2680 -0.9435 -0.1947
vn 0.1024 -0.9435 -0.3151
vn 0.9050 -0.3304 0.2680
vn 0.0247 -0.3304 0.9435
vn -0.8897 -0.3304 0.3151
vn -0.5746 -0.3304 -0.7488
vn 0.5346 -0.3304 -0.7779
vn 0.8026 -0.1256 0.5831
vn -0.3066 -0.1256 0.9435
vn -0.9921 -0.1256 -0.0000
vn -0.3066 -0.1256 -0.9435
vn 0.8026 -0.1256 -0.5831
vn 0.4089 0.6617 0.6284
vn -0.4713 0.6617 0.5831
vn -0.7002 0.6617 -0.2680
vn 0.0385 0.6617 -0.7488
vn 0.7240 0.6617 -0.1947
vn 0.2680 0.9435 -0.1947
vn 0.4911 0.7947 -0.3568
vn 0.4089 0.6617 -0.6284
vn -0.1024 0.9435 -0.3151
vn -0.1876 0.7947 -0.5773
vn -0.4713 0.6617 -0.5831
vn -0.3313 0.9435 -0.0000
vn -0.6071 0.7947 -0.0000
vn -0.7002 0.6617 0.2680
vn -0.1024 0.9435 0.3151
vn -0.1876 0.7947 0.5773
vn 0.0385 0.6617 0.7488
vn 0.2680 0.9435 0.1947
vn 0.4911 0.7947 0.3568
vn 0.7240 0.6617 0.1947
vn 0.8897 0.3304 -0.3151
vn 0.7947 0.1876 -0.5773
vn 0.5746 0.3304 -0.7488
vn -0.0247 0.3304 -0.9435
vn -0.3035 0.1876 -0.9342
vn -0.5346 0.3304 -0.7779
vn -0.9050 0.3304 -0.2680
vn -0.9822 0.1876 -0.0000
vn -0.9050 0.3304 0.2680
vn -0.5346 0.3304 0.7779
vn -0.3035 0.1876 0.9342
vn -0.0247 0.3304 0.9435
vn 0.5746 0.3304 0.7488
vn 0.7947 0.1876 0.5773
vn 0.8897 0.3304 0.3151
vn 0.3066 0.1256 -0.9435
vn 0.3035 -0.1876 -0.9342
vn 0.0247 -0.3304 -0.9435
vn -0.8026 0.1256 -0.5831
vn -0.7947 -0.1876 -0.5773
vn -0.8897 -0.3304 -0.3151
vn -0.8026 0.1256 0.5831
vn -0.7947 -0.1876 0.5773
vn -0.5746 -0.3304 0.7488
vn 0.3066 0.1256 0.9435
vn 0.3035 -0.1876 0.9342
vn 0.5346 -0.3304 0.7779
vn 0.9921 0.1256 -0.0000
vn 0.9822 -0.1876 -0.0000
vn 0.9050 -0.3304 -0.2680
vn 0.4713 -0.6617 -0.5831
vn 0.1876 -0.7947 -0.5773
vn -0.0385 -0.6617 -0.7488
vn -0.4089 -0.6617 -0.6284
vn -0.4911 -0.7947 -0.3568
vn -0.7240 -0.6617 -0.1947
vn -0.7240 -0.6617 0.1947
vn -0.4911 -0.7947 0.3568
vn -0.4089 -0.6617 0.6284
vn 0.7002 -0.6617 -0.2680
vn 0.6071 -0.7947 -0.0000
vn 0.3313 -0.9435 -0.0000
vn -0.0385 -0.6617 0.7488
vn 0.1876 -0.7947 0.5773
vn 0.4713 -0.6617 0.5831
vt 0.181819 0.000000
vt 0.909091 0.000000
vt 0.727273 0.000000
vt 0.545455 0.000000
vt 0.363637 0.000000
vt 0.272728 0.157461
vt 1.000000 0.157461
vt 0.090910 0.157461
vt 0.818182 0.157461
vt 0.636364 0.157461
vt 0.454546 0.157461
vt 0.181819 0.314921
vt 0.000000 0.314921
vt 0.909091 0.314921
vt 0.727273 0.314921
vt 0.545455 0.314921
vt 0.363637 0.314921
vt 0.454546 0.472382
vt 0.636364 0.472382
vt 0.818182 0.472382
vt 0.090910 0.472382
vt 0.272728 0.472382
vt 0.954545 0.078731
vt 0.136365 0.078731
vt 0.318182 0.078731
vt 0.227273 0.078731
vt 0.181819 0.157461
vt 0.363637 0.157461
vt 0.500000 0.078731
vt 0.409092 0.078731
vt 0.772727 0.078731
vt 0.863636 0.078731
vt 0.909091 0.157461
vt 0.590909 0.078731
vt 0.681818 0.078731
vt 0.727273 0.157461
vt 0.545455 0.157461
vt 0.318182 0.236191
vt 0.409092 0.236191
vt 0.136365 0.236191
vt 0.227273 0.236191
vt 0.863636 0.236191
vt 0.045455 0.236191
vt 0.954545 0.236191
vt 0.681818 0.236191
vt 0.772727 0.236191
vt 0.500000 0.236191
vt 0.590909 0.236191
vt 0.272728 0.314921
vt 0.090910 0.314921
vt 0.818182 0.314921
vt 0.636364 0.314921
vt 0.454546 0.314921
vt 0.136365 0.393651
vt 0.227273 0.393651
vt 0.409092 0.393651
vt 0.318182 0.393651
vt 0.863636 0.393651
vt 0.045455 0.393651
vt 0.681818 0.393651
vt 0.772727 0.393651
vt 0.500000 0.393651
vt 0.590909 0.393651
s 0
f 22/22/10 35/47/10 34/45/10
f 23/27/11 35/46/11 37/49/11
f 22/23/12 34/44/12 39/53/12
f 22/24/13 39/52/13 41/56/13
f 22/25/14 41/55/14 38/50/14
f 23/27/15 37/49/15 44/59/15
f 24/29/16 36/48/16 46/61/16
f 25/30/17 40/54/17 48/63/17
f 26/31/18 42/57/18 50/66/18
f 27/32/19 43/58/19 52/68/19
f 23/27/20 44/59/20 47/62/20
f 24/29/21 46/61/21 49/64/21
f 25/30/22 48/63/22 51/67/22
f 26/31/23 50/66/23 53/69/23
f 27/32/24 52/68/24 45/60/24
f 28/33/25 54/70/25 59/76/25
f 29/34/26 55/71/26 61/80/26
f 30/36/27 56/72/27 62/82/27
f 31/37/28 57/73/28 63/84/28
f 32/38/29 58/74/29 60/77/29
f 60/77/30 63/83/30 33/39/30
f 60/77/31 58/74/31 63/83/31
f 58/74/32 31/37/32 63/83/32
f 63/84/33 62/81/33 33/40/33
f 63/84/34 57/73/34 62/81/34
f 57/73/35 30/36/35 62/81/35
f 62/82/36 61/79/36 33/41/36
f 62/82/37 56/72/37 61/79/37
f 56/72/38 29/35/38 61/79/38
f 61/80/39 59/75/39 33/42/39
f 61/80/40 55/71/40 59/75/40
f 55/71/41 28/33/41 59/75/41
f 59/76/42 60/78/42 33/43/42
f 59/76/43 54/70/43 60/78/43
f 54/70/44 32/38/44 60/78/44
f 45/60/45 58/74/45 32/38/45
f 45/60/46 52/68/46 58/74/46
f 52/68/47 31/37/47 58/74/47
f 53/69/48 57/73/48 31/37/48
f 53/69/49 50/66/49 57/73/49
f 50/66/50 30/36/50 57/73/50
f 51/67/51 56/72/51 30/36/51
f 51/67/52 48/63/52 56/72/52
f 48/63/53 29/35/53 56/72/53
f 49/64/54 55/71/54 29/34/54
f 49/64/55 46/61/55 55/71/55
f 46/61/56 28/33/56 55/71/56
f 47/62/57 54/70/57 28/33/57
f 47/62/58 44/59/58 54/70/58
f 44/59/59 32/38/59 54/70/59
f 52/68/60 53/69/60 31/37/60
f 52/68/61 43/58/61 53/69/61
f 43/58/62 26/31/62 53/69/62
f 50/66/63 51/67/63 30/36/63
f 50/66/64 42/57/64 51/67/64
f 42/57/65 25/30/65 51/67/65
f 48/63/66 49/65/66 29/35/66
f 48/63/67 40/54/67 49/65/67
f 40/54/68 24/28/68 49/65/68
f 46/61/69 47/62/69 28/33/69
f 46/61/70 36/48/70 47/62/70
f 36/48/71 23/27/71 47/62/71
f 44/59/72 45/60/72 32/38/72
f 44/59/73 37/49/73 45/60/73
f 37/49/74 27/32/74 45/60/74
f 38/50/75 43/58/75 27/32/75
f 38/50/76 41/55/76 43/58/76
f 41/55/77 26/31/77 43/58/77
f 41/56/78 42/57/78 26/31/78
f 41/56/79 39/52/79 42/57/79
f 39/52/80 25/30/80 42/57/80
f 39/53/81 40/54/81 25/30/81
f 39/53/82 34/44/82 40/54/82
f 34/44/83 24/28/83 40/54/83
f 37/49/84 38/51/84 27/32/84
f 37/49/85 35/46/85 38/51/85
f 35/46/86 22/26/86 38/51/86
f 34/45/87 36/48/87 24/29/87
f 34/45/88 35/47/88 36/48/88
f 35/47/89 23/27/89 36/48/89
